<svg width="25" height="19" viewBox="0 0 25 19" fill="none" xmlns="http://www.w3.org/2000/svg">
<path d="M23.9583 10.5365H1.04167C0.466665 10.5365 0 9.86277 0 9.03269C0 8.20261 0.466665 7.52893 1.04167 7.52893H23.9583C24.5333 7.52893 25 8.20261 25 9.03269C25 9.86277 24.5333 10.5365 23.9583 10.5365Z" fill="black"/>
<path d="M23.9583 3.00752H1.04167C0.466665 3.00752 0 2.33384 0 1.50376C0 0.673681 0.466665 0 1.04167 0H23.9583C24.5333 0 25 0.673681 25 1.50376C25 2.33384 24.5333 3.00752 23.9583 3.00752Z" fill="black"/>
<path d="M23.9583 18.0263H1.04167C0.466665 18.0263 0 17.3526 0 16.5226C0 15.6925 0.466665 15.0188 1.04167 15.0188H23.9583C24.5333 15.0188 25 15.6925 25 16.5226C25 17.3526 24.5333 18.0263 23.9583 18.0263Z" fill="black"/>
</svg>
