<svg width="60" height="60" viewBox="0 0 60 60" fill="none" xmlns="http://www.w3.org/2000/svg">
<path d="M19.2034 27.654C17.7257 27.2286 16.2479 27.0127 14.8104 27.0127C12.5906 27.0127 10.7384 27.52 9.30214 28.1411C10.6868 23.0722 14.013 14.3258 20.639 13.3408C21.2527 13.2496 21.7555 12.8058 21.9229 12.2086L23.3711 7.02883C23.4932 6.59079 23.4209 6.12191 23.171 5.74177C22.9211 5.36163 22.5196 5.10799 22.0696 5.04631C21.5806 4.9796 21.0821 4.94561 20.588 4.94561C12.6347 4.94561 4.75806 13.247 1.43435 25.1334C-0.516709 32.1068 -1.08881 42.5909 3.71708 49.1899C6.40639 52.8824 10.3299 54.8543 15.3787 55.0512C15.3995 55.0519 15.4196 55.0525 15.4404 55.0525C21.6699 55.0525 27.1939 50.8571 28.8744 44.851C29.8782 41.2604 29.4244 37.4949 27.5955 34.2454C25.786 31.0325 22.806 28.6906 19.2034 27.654Z" fill="#FFD801"/>
<path d="M58.1987 34.2461C56.3893 31.0325 53.4092 28.6906 49.8067 27.654C48.3289 27.2286 46.8511 27.0127 45.4143 27.0127C43.1945 27.0127 41.3416 27.52 39.9054 28.1411C41.29 23.0722 44.6162 14.3258 51.2429 13.3408C51.8565 13.2496 52.3588 12.8058 52.5268 12.2086L53.975 7.02883C54.0971 6.59079 54.0247 6.12191 53.7749 5.74177C53.5256 5.36163 53.1241 5.10799 52.6735 5.04631C52.1851 4.9796 51.6866 4.94561 51.1919 4.94561C43.2385 4.94561 35.3619 13.247 32.0376 25.1334C30.0872 32.1068 29.5151 42.5909 34.3216 49.1911C37.0103 52.883 40.9344 54.8555 45.9826 55.0519C46.0034 55.0525 46.0235 55.0531 46.0449 55.0531C52.2738 55.0531 57.7985 50.8577 59.4789 44.8516C60.4815 41.2611 60.0271 37.4949 58.1987 34.2461Z" fill="#FFD801"/>
</svg>
