<svg width="15" height="15" viewBox="0 0 15 15" fill="none" xmlns="http://www.w3.org/2000/svg">
<path d="M14.345 0.976309C13.6681 0.611838 12.9131 1.31475 12.4705 1.73129C11.4553 2.72057 10.5962 3.86605 9.63286 4.9074C8.56548 6.05288 7.57621 7.19836 6.48279 8.31785C5.85798 8.94266 5.18111 9.61954 4.76457 10.4005C3.82736 9.48933 3.02032 8.50005 1.97897 7.69304C1.22399 7.1203 -0.0256218 6.70376 0.00041182 8.08355C0.0524791 9.87992 1.64053 11.8064 2.81205 13.0299C3.30669 13.5506 3.95753 14.0973 4.7125 14.1234C5.62368 14.1754 6.56089 13.082 7.1076 12.4832C8.07089 11.4419 8.8519 10.2703 9.737 9.203C10.8825 7.79718 12.054 6.41735 13.1734 4.9855C13.8764 4.10035 16.0892 1.91348 14.345 0.976309ZM1.14585 7.97941C1.11982 7.97941 1.09378 7.97941 1.04172 8.00541C0.937581 7.97941 1.38028 8.09184 1.27615 8.03977C1.35425 7.98771 0.963615 7.87524 1.14585 7.97941Z" fill="#FFD801"/>
</svg>
